<svg preserveAspectRatio="none" overflow="visible" style="display: block;" width="338.45" height="23.8669" viewBox="0 0 338.45 23.8669" fill="none" xmlns="http://www.w3.org/2000/svg">
<g id="logo">
<path id="Vector" d="M72.7505 16.0527C72.3658 16.0534 72.0399 16.352 72.0399 16.7568C72.0399 17.1668 72.3658 17.4631 72.7505 17.4631C73.1294 17.4631 73.4553 17.1668 73.4567 16.7568C73.4553 16.3513 73.1294 16.0534 72.7505 16.0527ZM72.6328 16.6833V16.4939H72.7682C72.8498 16.4968 72.9109 16.508 72.9109 16.5837C72.9102 16.6818 72.852 16.6803 72.7498 16.684L72.6328 16.6833ZM72.9021 16.8244C73.0043 16.7999 73.0882 16.7249 73.086 16.5889C73.0845 16.4196 72.9734 16.3401 72.7851 16.3401H72.4643V17.1765H72.6335V16.8363H72.727L72.9315 17.1765H73.0838C72.994 17.2544 72.8793 17.3005 72.7498 17.3005C72.4548 17.3005 72.2275 17.0717 72.226 16.7575C72.2275 16.4493 72.4548 16.2198 72.7498 16.2198C73.0396 16.2198 73.2677 16.4486 73.2684 16.7575C73.2684 16.918 73.2074 17.0569 73.1103 17.1549L72.9013 16.8251L72.9021 16.8244ZM72.9925 10.9731L73.4229 9.37919H62.1982L63.0317 10.4651L61.23 17.4364H71.3366L71.7368 15.8418H64.8649L65.3174 14.08H70.7157L71.1475 12.4875H65.7426L66.1222 10.9739L72.9925 10.9731ZM31.7476 11.7366L31.8403 11.415C31.8866 11.2279 31.9028 11.057 31.8873 10.8981C31.8381 10.2905 31.3356 9.89094 30.6735 9.67332C30.0085 9.45273 29.1705 9.37919 28.3363 9.37919H20.9502L21.747 10.4346L19.935 17.4364H26.5736C28.4503 17.4364 30.6117 17.0673 31.0229 15.4652L31.1693 14.891C31.2113 14.7291 31.2282 14.565 31.2135 14.4075C31.1745 13.8846 30.7743 13.4323 30.018 13.205C30.9457 12.9317 31.5637 12.443 31.7476 11.7366ZM28.0281 14.6118L27.8287 15.3753C27.7625 15.5944 27.5602 15.8343 26.6288 15.841H23.5714L24.0238 14.0792H27.1592C27.5204 14.0785 27.7522 14.1268 27.8736 14.1862C27.9927 14.2493 28.0295 14.3102 28.045 14.4246C28.0494 14.4759 28.0435 14.5405 28.0281 14.6118ZM28.5857 11.4752L28.4783 11.9238C28.4025 12.1711 28.2245 12.4779 27.3108 12.4868H24.4505L24.8279 10.9731H27.7183C28.1259 10.9731 28.3679 11.0192 28.4871 11.0712C28.6041 11.1261 28.6129 11.164 28.6269 11.2338C28.6328 11.3007 28.6114 11.3876 28.5857 11.4752ZM58.4205 9.37919L57.1927 14.0889L53.9477 9.37919H49.7029L50.5364 10.4784L48.7259 17.4364H51.9614L53.0009 13.3439L55.9428 17.4364H59.5696L61.6545 9.37919H58.4205ZM44.8291 9.37919L45.6273 10.4391L43.8169 17.4364H47.0508L49.1379 9.37919H44.8291ZM43.6528 12.2959L43.8926 11.415C43.939 11.2279 43.9559 11.057 43.9397 10.9003C43.8912 10.2905 43.3872 9.89094 42.7266 9.67332C42.063 9.45273 41.2229 9.37919 40.3887 9.37919H32.7532L33.5536 10.4406L31.7424 17.4364H34.9764L35.7606 14.3912H37.1657L39.3278 17.4364H43.0805L40.7455 14.2887C42.4875 14.0265 43.3887 13.3959 43.6535 12.2967L43.6528 12.2959ZM40.6366 11.4759L40.435 12.2313C40.3173 12.7007 39.987 12.7854 39.0225 12.7965H36.1623L36.6338 10.9731H39.5221C39.9318 10.9731 40.2349 10.9998 40.4115 11.0533C40.5895 11.115 40.6336 11.164 40.6528 11.2955C40.6572 11.3437 40.6528 11.4061 40.6366 11.4759ZM14.0607 16.3045C13.868 16.3045 13.7054 16.4538 13.7054 16.6565C13.7054 16.8615 13.868 17.0101 14.0607 17.0101C14.2498 17.0101 14.4131 16.8615 14.4139 16.6565C14.4131 16.4538 14.2498 16.3045 14.0607 16.3045ZM14.0012 16.6201V16.5251H14.0688C14.11 16.5266 14.1402 16.5318 14.1402 16.5704C14.1402 16.6194 14.1108 16.6194 14.06 16.6209H14.0019L14.0012 16.6201ZM14.1358 16.6907C14.1865 16.6788 14.2292 16.6409 14.2277 16.5733C14.227 16.4887 14.1718 16.4493 14.0769 16.4486H13.9165V16.8667H14.0012V16.6966H14.0482L14.1505 16.8667H14.2263C14.1814 16.9054 14.124 16.9284 14.0593 16.9284C13.9114 16.9284 13.7981 16.814 13.7974 16.6573C13.7981 16.5028 13.9121 16.3884 14.0593 16.3884C14.2042 16.3884 14.3182 16.5028 14.319 16.6573C14.319 16.7375 14.2881 16.8066 14.2395 16.8556L14.135 16.6907H14.1358ZM2.39164 3.53237C2.39091 2.96417 1.9348 2.50442 1.37422 2.50367C0.810701 2.50442 0.356061 2.96417 0.355325 3.53237C0.356061 4.09982 0.810701 4.55883 1.37422 4.55957C1.9348 4.55809 2.39091 4.09907 2.39164 3.53237ZM14.9641 2.50367C14.4014 2.50442 13.9467 2.96417 13.946 3.53237C13.9467 4.09982 14.4021 4.55883 14.9641 4.55957C15.5277 4.55883 15.9808 4.09982 15.9823 3.53237C15.9816 2.96417 15.5277 2.50442 14.9641 2.50367ZM8.16881 2.69307C8.73086 2.69233 9.18623 2.23332 9.1877 1.66587C9.18623 1.09767 8.73086 0.637918 8.16881 0.637176C7.60603 0.637918 7.15139 1.09767 7.15065 1.66587C7.15139 2.23406 7.60603 2.69307 8.16881 2.69307ZM14.6706 5.04087L13.6841 4.47787C13.2449 5.23026 12.4401 5.73755 11.5139 5.74349L11.5131 5.74424H11.4955C10.0955 5.74127 8.96259 4.59745 8.96038 3.18476V3.17288H7.37724L7.37797 3.18476C7.3765 4.59745 6.24284 5.74127 4.84214 5.74424H4.83993C3.90564 5.74424 3.09199 5.23323 2.65207 4.47713L2.44682 4.59299L1.69938 5.01264L1.4934 5.12851L1.51032 5.1545C2.24598 6.20325 2.70945 7.45773 2.79846 8.81768H13.5406C13.6304 7.45773 14.0924 6.20325 14.8273 5.1545L14.8457 5.12777L14.6765 5.0327L14.6706 5.04087ZM12.9315 6.5761C12.8028 6.94673 12.7005 7.33072 12.6247 7.72363L12.6174 7.7578H3.71878L3.71216 7.72363C3.63639 7.33072 3.53339 6.94747 3.40465 6.5761L3.37302 6.48623L3.45983 6.52263C3.88578 6.70237 4.35145 6.8019 4.84067 6.80264C6.31347 6.80115 7.57734 5.90541 8.12982 4.62345L8.16807 4.53358L8.20633 4.62345C8.75808 5.90541 10.0219 6.80115 11.494 6.80264C11.9832 6.80264 12.4496 6.70237 12.8748 6.52337L12.9617 6.48623L12.9308 6.57685L12.9315 6.5761ZM5.50571 18.3515V17.1304H4.47872V18.3515C4.47578 19.7716 3.33771 20.9191 1.93259 20.9221C1.88256 20.9221 1.83401 20.9206 1.78546 20.9176C2.09002 21.2816 2.43578 21.5898 2.80067 21.8527C4.35513 21.4591 5.50571 20.0412 5.50571 18.3515ZM7.05943 18.3515L7.06016 17.1304H6.03244V18.3515C6.03244 19.4968 5.57412 20.5284 4.83184 21.2786C4.42355 21.6908 3.93212 22.0146 3.38405 22.2234C3.78646 22.4506 4.20064 22.6311 4.60231 22.7722C6.07585 21.8631 7.05943 20.2224 7.05943 18.3515ZM14.6338 16.3312V16.7041C14.6331 17.0227 14.3763 17.2827 14.0607 17.2827C13.7437 17.2819 13.4877 17.0234 13.4877 16.7041V10.4168H13.4891V9.37919H2.80656L1.18368 15.6568L2.91911 15.659L2.91838 18.3299C2.91764 18.8617 2.48949 19.2933 1.96201 19.2947C1.43381 19.2933 1.00639 18.8625 1.00492 18.3299V18.122L0 17.5954V18.3307C0 19.1759 0.523793 19.8949 1.2624 20.1793C1.47942 20.264 1.71557 20.3115 1.96201 20.3115C3.04638 20.3093 3.92182 19.4247 3.92403 18.3314V16.5778H6.2914C6.68939 16.5778 7.01161 16.2525 7.01308 15.8499C7.01308 15.6813 6.95644 15.5253 6.86006 15.4021H6.66879C6.73721 15.4771 6.77914 15.5773 6.77914 15.6873C6.77914 15.922 6.59081 16.1129 6.35761 16.1129C6.22445 16.1129 6.10527 16.0505 6.0295 15.9546C6.01773 15.9405 6.01037 15.9279 6.00522 15.9197C5.98904 15.8975 5.97432 15.8767 5.9574 15.8559C5.73891 15.5811 5.40419 15.4043 5.02605 15.4043C4.52654 15.4043 4.09985 15.7155 3.92256 16.1559L3.92329 16.1396V15.6613L3.92477 14.6244L2.51156 14.6229L3.58489 10.4732L3.66802 10.4822C3.68052 11.0414 3.95493 11.5354 4.37352 11.8436L4.41398 11.8733L4.37867 11.909C4.06601 12.215 3.86959 12.6383 3.85856 13.1092H4.61482C4.63836 12.593 5.06063 12.1801 5.5778 12.1793L6.71587 12.1786V11.4143H5.38506C4.86053 11.4128 4.43384 10.9887 4.42281 10.4606L4.42134 10.4175H7.66929L7.66856 16.7033C7.66929 19.245 9.12444 21.4427 11.2402 22.4937C11.6014 22.3132 11.9722 22.0963 12.3408 21.8327C11.5514 21.5638 10.8459 21.1137 10.2669 20.5314C9.29658 19.5495 8.69702 18.1999 8.69702 16.7033V10.4168H9.30541V16.7316C9.30541 18.9828 10.8503 20.8686 12.9293 21.3714C13.2309 21.104 13.5244 20.8018 13.8011 20.4586C11.8655 20.3346 10.3368 18.7161 10.3324 16.7323V10.4175H10.8761L10.8753 16.7033C10.8761 18.4785 12.2996 19.9179 14.06 19.9186C14.1093 19.9186 14.1586 19.9172 14.2079 19.9149C14.4499 19.5547 14.675 19.1573 14.8744 18.7154C14.6243 18.8201 14.3491 18.8803 14.0607 18.881C12.8697 18.8781 11.906 17.9051 11.9038 16.7033V10.4168H12.4592V16.7033C12.4592 17.5961 13.1757 18.3195 14.06 18.3203C14.9443 18.3195 15.6601 17.5968 15.6608 16.7041V15.743L14.6338 16.3312ZM8.28799 20.4363C7.97901 19.9446 7.73035 19.4113 7.55012 18.8469C7.50818 19.3326 7.4074 19.7983 7.25438 20.241C7.21833 20.3427 7.18008 20.4438 7.13814 20.5418C6.735 21.5185 6.06849 22.357 5.23057 22.9691C5.72126 23.1028 6.17001 23.183 6.52387 23.2298C7.01602 22.7559 7.43903 22.2085 7.77008 21.6024L7.80024 21.546L7.83997 21.5972C8.29755 22.1944 8.83826 22.7262 9.44151 23.1733C9.79904 23.0768 10.2228 22.9416 10.6796 22.7529C10.1522 22.4454 9.66809 22.0718 9.23994 21.6396C8.88093 21.2764 8.56239 20.8723 8.28799 20.4371V20.4363Z" fill="#151415"/>
<path id="Vector_2" d="M149.668 8.91634C149.084 9.12735 148.664 9.48109 148.489 9.98292L147.843 11.8084H150.36L151.489 8.64164C150.799 8.64164 150.166 8.7222 149.668 8.91634ZM149.668 7.97943C150.072 7.94797 150.507 7.93109 150.976 7.93109H154.837L152.026 15.8952H148.923L150.103 12.5358H147.584L146.403 15.8952H142.69C143.481 15.1854 143.788 14.4273 143.788 14.4273L145.29 10.1939C145.694 9.02914 146.935 8.17357 149.668 7.97943ZM174.995 15.8952H178.144L180.954 7.93109H177.822L174.995 15.8952ZM185.479 14.6513C184.93 15.0227 184.089 15.1854 183.056 15.1854L184.896 9.9998C185.011 9.69287 185.203 9.43352 185.479 9.2248C186.027 8.82119 186.883 8.6424 187.885 8.6424L186.028 13.9899C185.915 14.2631 185.736 14.4894 185.479 14.6521V14.6513ZM185.479 15.7647C187.175 15.5223 188.775 14.9414 189.114 14.0198L191.243 7.93032H187.383C186.674 7.93032 186.043 7.96332 185.479 8.02854C183.153 8.30017 182.071 9.1074 181.7 10.1924L179.663 15.8936H183.752C184.3 15.8936 184.896 15.8629 185.479 15.7647ZM171.23 8.64164C172.571 8.64164 172.396 9.01379 172.265 9.38594L171.765 10.7894C171.668 11.0955 171.345 11.3081 170.682 11.3718C170.567 11.3718 170.424 11.3887 170.279 11.3887H169.035L170.002 8.64087L171.23 8.64164ZM167.128 7.93109L164.303 15.8952H167.451L168.777 12.1138H169.955C170.279 12.1138 170.52 12.1476 170.682 12.179C171.201 12.2926 171.135 12.5512 171.038 12.8412L169.973 15.8944H173.881C173.202 14.9414 173.333 14.2623 174.075 13.0515C174.38 12.1959 173.462 11.8874 172.523 11.7585C173.492 11.6795 174.671 11.4217 174.963 10.6282L175.381 9.38671C175.724 8.47973 175.673 7.93109 172.718 7.93109H167.128ZM197.16 8.64164C198.502 8.64164 198.324 9.01379 198.195 9.38594L197.694 10.7894C197.597 11.0955 197.273 11.3081 196.612 11.3718C196.498 11.3718 196.353 11.3887 196.206 11.3887H194.965L195.934 8.64087L197.16 8.64164H197.16ZM193.058 7.93109L190.232 15.8952H193.379L194.705 12.1138H195.885C196.205 12.1138 196.447 12.1476 196.611 12.179C197.127 12.2926 197.061 12.5512 196.966 12.8412L195.901 15.8944H199.809C199.13 14.9414 199.259 14.2623 200.002 13.0515C200.31 12.1959 199.39 11.8874 198.452 11.7585C199.419 11.6795 200.6 11.4217 200.891 10.6282L201.31 9.38671C201.652 8.47973 201.601 7.93109 198.647 7.93109H193.058ZM160.488 8.64164C161.827 8.64164 161.652 9.01379 161.523 9.38594L161.02 10.7894C160.925 11.0955 160.601 11.3081 159.939 11.3718C159.825 11.3718 159.68 11.3887 159.534 11.3887H158.291L159.26 8.64087L160.488 8.64164H160.488ZM156.387 7.93109L153.56 15.8952H156.709L158.034 12.1138H159.212C159.535 12.1138 159.778 12.1476 159.94 12.179C160.457 12.2926 160.392 12.5512 160.295 12.8412L159.229 15.8944H163.138C162.459 14.9414 162.589 14.2623 163.334 13.0515C163.639 12.1959 162.717 11.8874 161.781 11.7585C162.749 11.6795 163.93 11.4217 164.221 10.6282L164.637 9.38671C164.979 8.47973 164.93 7.93109 161.973 7.93109H156.387ZM135.71 7.93109L133.627 13.8272C133.304 14.7173 131.526 15.1854 130.62 15.1854L133.188 7.93109H130.04L127.229 15.8952H130.412C132.142 15.8952 133.481 15.2974 134.353 14.9913L133.965 15.8952H136.567C139.134 15.8952 141.815 15.3964 142.464 13.6339C143.336 11.3902 144.047 8.57718 145.064 7.93186H141.332L139.263 13.828C138.956 14.7181 137.148 15.1862 136.261 15.1862L138.813 7.93186H135.711L135.71 7.93109ZM201.568 16.0839H201.548C201.013 16.0839 200.666 15.7502 200.666 15.2506V15.1532C200.666 14.6544 201.013 14.3206 201.548 14.3206H201.568C202.103 14.3206 202.45 14.6544 202.45 15.1532V15.2514C202.45 15.7509 202.103 16.0839 201.568 16.0839ZM202.303 15.1524C202.303 14.7411 202.015 14.4672 201.569 14.4672H201.549C201.102 14.4672 200.815 14.7411 200.815 15.1524V15.2506C200.815 15.6634 201.102 15.9358 201.549 15.9358H201.569C202.015 15.9358 202.303 15.6627 202.303 15.2506V15.1524ZM201.774 15.3135C201.774 15.3197 201.774 15.3243 201.779 15.3281L201.901 15.5737C201.906 15.5836 201.912 15.5929 201.912 15.6036C201.912 15.6281 201.893 15.642 201.857 15.642H201.779C201.755 15.6381 201.738 15.622 201.735 15.6128L201.622 15.3534C201.616 15.3427 201.603 15.3335 201.579 15.3243H201.454C201.42 15.3243 201.405 15.3381 201.405 15.3726V15.5929C201.405 15.6274 201.392 15.642 201.356 15.642H201.303C201.268 15.642 201.255 15.6281 201.255 15.5929V14.7695C201.255 14.7357 201.268 14.7204 201.303 14.7204H201.611C201.797 14.7204 201.919 14.8432 201.919 15.0289V15.0488C201.92 15.1862 201.772 15.2552 201.772 15.312L201.774 15.3135ZM201.764 15.0143C201.764 14.9268 201.701 14.8578 201.613 14.8578H201.455C201.421 14.8578 201.406 14.8731 201.406 14.9076V15.1386C201.406 15.1716 201.421 15.1877 201.455 15.1877H201.613C201.701 15.1877 201.764 15.1179 201.764 15.0296V15.0143ZM111.053 15.5576C111.193 15.6611 113.233 17.2787 113.972 15.731C114.715 14.1955 114.399 9.46574 114.344 8.55032C114.289 7.64564 119.279 8.39686 119.279 8.39686C116.948 11.0441 115.957 13.4766 115.585 18.4887C112.579 18.369 111.274 15.8852 111.053 15.5576ZM108.428 13.406C107.815 12.8251 107.327 12.1215 106.975 11.4293C106.27 10.0236 106.125 8.64164 106.668 8.28867C106.668 8.28867 103.449 8.05156 103.404 9.04832C103.404 9.04832 103.401 9.09359 103.404 9.12812C103.467 9.72817 105.512 11.3158 106.976 12.3824C107.792 12.9724 108.428 13.406 108.428 13.406ZM108.46 8.40683C108.59 9.31151 109.407 13.7152 108.665 15.2614C108.316 15.9926 107.597 15.9052 106.933 15.6105C106.202 15.2852 105.536 14.7066 105.536 14.7066C105.536 14.7066 106.05 15.5783 106.933 16.417C107.716 17.1689 108.797 17.8879 110.06 17.9424C110.191 16.2543 111.878 9.44119 113.438 8.01396C113.226 7.97099 108.294 7.29651 108.459 8.40607L108.46 8.40683ZM99.4567 11.9342C99.4567 5.34213 104.799 0 111.39 0C117.981 0 123.323 5.3429 123.323 11.9342C123.323 18.5256 117.981 23.8669 111.39 23.8669C104.798 23.8677 99.4567 18.5256 99.4567 11.9342ZM101.445 11.9342C101.445 14.6836 102.554 17.1643 104.358 18.966C106.161 20.7677 108.64 21.878 111.39 21.878C114.14 21.878 116.619 20.7685 118.422 18.966C120.222 17.1643 121.335 14.6836 121.335 11.9342C121.335 9.1849 120.222 6.70414 118.422 4.90245C116.619 3.10077 114.14 1.98891 111.39 1.98891C108.641 1.98891 106.16 3.10077 104.358 4.90245C102.555 6.70414 101.445 9.18414 101.445 11.9342Z" fill="#151415"/>
<g id="Team Sports Logo 1">
<path id="Vector_3" d="M262.136 6.88126C261.66 8.0296 260.371 8.591 259.14 8.59951H257.282L259.42 4.89082H261.211C261.983 4.91633 262.568 5.835 262.136 6.88126ZM258.343 14.3157C257.817 15.7192 256.035 16.221 255.05 16.221H252.921L255.152 12.3337H257.274C257.918 12.3337 258.843 13.0142 258.343 14.3157ZM263.705 1.11407H252.827L251.444 3.50431L257.308 3.91261L257.087 4.3124L250.766 4.72069L248.89 7.97856L254.77 8.35283L254.541 8.74412L234.474 10.0541L233.583 11.6277L252.225 12.7931L252.004 13.1843L241.627 13.7883L242.416 16.7399L249.73 17.1822L249.501 17.5735L242.781 18.0499L243.417 20.5422H256.221C259.319 20.5422 264.876 18.4922 265.521 14.1881C265.538 14.086 265.547 13.9839 265.555 13.8904C265.564 13.7883 265.564 13.6862 265.555 13.5841C265.547 13.4821 265.538 13.38 265.53 13.2864C265.513 13.1843 265.496 13.0908 265.47 12.9887C265.445 12.8866 265.419 12.7931 265.385 12.6995C265.351 12.6059 265.309 12.5124 265.267 12.4188C265.224 12.3252 265.173 12.2402 265.122 12.1551C265.071 12.07 265.012 11.985 264.953 11.9084C264.893 11.8319 264.825 11.7468 264.757 11.6787C264.69 11.6022 264.613 11.5341 264.537 11.4661C264.46 11.398 264.384 11.3385 264.299 11.279C264.214 11.2194 264.13 11.1684 264.045 11.1173C263.96 11.0663 263.867 11.0238 263.773 10.9812C263.68 10.9387 263.587 10.9047 263.493 10.8707C263.4 10.8366 263.298 10.8111 263.205 10.7941C263.103 10.7686 263.01 10.7516 262.908 10.7431C266.913 9.61175 268.27 6.91529 268.559 5.84351C269.518 2.31344 267.048 1.11407 263.705 1.11407Z" fill="#151415"/>
<path id="Vector_4" d="M228.45 20.5504H237.673L238.954 18.3218L229.34 19.0023L228.45 20.5504Z" fill="#151415"/>
<path id="Vector_5" d="M247.024 1.12258L239.608 1.11407L238.726 2.6707L247.584 3.22361L247.024 1.12258Z" fill="#151415"/>
<path id="Vector_6" d="M248.008 4.89096L237.045 5.58846L236.154 7.14509L248.823 7.9787L248.008 4.89096Z" fill="#151415"/>
<path id="Vector_7" d="M231.012 16.0852L239.947 16.5871L241.559 13.7886L231.912 14.5286L231.012 16.0852Z" fill="#151415"/>
<path id="Vector_8" d="M271.657 14.3919V20.1591H269.909V14.3919H269.052V12.8182H269.909V10.377H271.657V12.8353H272.709V14.4004L271.657 14.3919Z" fill="#151415"/>
<path id="Vector_9" d="M276.884 14.1959C276.824 14.1959 276.765 14.1959 276.697 14.1959C276.629 14.1959 276.578 14.2044 276.519 14.2129C276.459 14.2214 276.4 14.23 276.341 14.247C276.281 14.264 276.222 14.281 276.163 14.298C276.103 14.315 276.044 14.3405 275.993 14.3661C275.933 14.3916 275.883 14.4171 275.832 14.4426C275.781 14.4681 275.73 14.5022 275.679 14.5362C275.628 14.5702 275.577 14.6042 275.535 14.6468C275.484 14.6808 275.441 14.7233 275.399 14.7658C275.356 14.8084 275.314 14.8509 275.272 14.9019C275.229 14.9445 275.195 14.9955 275.161 15.0465C275.127 15.0976 275.093 15.1486 275.059 15.1997C275.026 15.2507 275 15.3102 274.975 15.3613C274.949 15.4123 274.924 15.4719 274.907 15.5314C274.89 15.5909 274.864 15.6505 274.847 15.71C274.83 15.7696 274.822 15.8291 274.805 15.8887H278.852C278.844 15.8291 278.835 15.7696 278.827 15.71C278.818 15.6505 278.801 15.5909 278.784 15.5399C278.767 15.4804 278.742 15.4293 278.725 15.3698C278.708 15.3102 278.674 15.2592 278.649 15.2082C278.623 15.1571 278.589 15.1061 278.555 15.0551C278.521 15.004 278.487 14.9615 278.453 14.9104C278.42 14.8594 278.377 14.8169 278.335 14.7744C278.292 14.7318 278.25 14.6893 278.207 14.6553C278.165 14.6212 278.114 14.5787 278.063 14.5447C278.012 14.5107 277.961 14.4766 277.91 14.4511C277.86 14.4256 277.809 14.4001 277.749 14.3746C277.698 14.349 277.639 14.332 277.588 14.315C277.529 14.298 277.478 14.281 277.418 14.264C277.359 14.247 277.3 14.2385 277.24 14.23C277.181 14.2214 277.121 14.2214 277.062 14.2129C277.003 14.2129 276.943 14.2129 276.884 14.2129V14.1959ZM280.541 17.2922H274.856C274.898 17.4793 274.975 17.6579 275.093 17.8196C275.187 17.9727 275.306 18.1003 275.433 18.2279C275.56 18.3469 275.704 18.449 275.857 18.5341C276.01 18.6191 276.179 18.6872 276.349 18.7297C276.519 18.7723 276.697 18.7978 276.875 18.7978C276.96 18.8063 277.045 18.8063 277.13 18.7978C277.215 18.7893 277.3 18.7808 277.376 18.7637C277.461 18.7467 277.537 18.7212 277.613 18.6957C277.69 18.6702 277.766 18.6362 277.843 18.5936C277.919 18.5511 277.987 18.5086 278.055 18.4575C278.123 18.4065 278.19 18.3555 278.25 18.2959C278.309 18.2364 278.369 18.1768 278.42 18.1088C278.47 18.0407 278.521 17.9727 278.564 17.8961H280.414C280.38 18.0067 280.337 18.1088 280.286 18.2108C280.244 18.3129 280.193 18.415 280.134 18.5086C280.074 18.6106 280.015 18.7042 279.955 18.7978C279.887 18.8913 279.828 18.9849 279.752 19.07C279.684 19.155 279.607 19.2401 279.523 19.3252C279.446 19.4017 279.361 19.4783 279.277 19.5548C279.192 19.6314 279.098 19.6994 279.014 19.759C278.92 19.827 278.827 19.8866 278.733 19.9376C278.64 19.9971 278.538 20.0482 278.437 20.0907C278.335 20.1418 278.233 20.1843 278.123 20.2183C278.021 20.2608 277.91 20.2949 277.8 20.3204C277.69 20.3459 277.58 20.3714 277.469 20.3969C277.359 20.4139 277.249 20.431 277.138 20.4395C277.028 20.448 276.918 20.4565 276.799 20.4565C276.689 20.4565 276.578 20.448 276.459 20.4395C276.349 20.431 276.239 20.4139 276.129 20.3969C276.018 20.3799 275.908 20.3544 275.798 20.3204C275.687 20.2864 275.586 20.2523 275.475 20.2183C275.373 20.1758 275.263 20.1332 275.161 20.0822C275.059 20.0312 274.958 19.9801 274.864 19.9206C274.771 19.861 274.678 19.8015 274.584 19.7335C274.491 19.6654 274.406 19.5974 274.321 19.5208C274.236 19.4442 274.152 19.3677 274.075 19.2911C273.999 19.2061 273.922 19.1295 273.855 19.0359C273.787 18.9509 273.719 18.8573 273.651 18.7637C273.583 18.6702 273.532 18.5766 273.473 18.4745C273.422 18.3725 273.371 18.2789 273.32 18.1683C273.278 18.0662 273.235 17.9642 273.201 17.8536C273.167 17.743 273.133 17.6409 273.108 17.5304C273.082 17.4198 273.057 17.3092 273.04 17.1986C273.023 17.088 273.015 16.9775 273.006 16.8584C272.998 16.7478 272.998 16.6372 272.998 16.5181C272.998 16.3905 272.998 16.2629 273.006 16.1353C273.015 16.0077 273.032 15.8802 273.057 15.7526C273.082 15.625 273.108 15.4974 273.142 15.3783C273.176 15.2507 273.218 15.1316 273.261 15.0125C273.312 14.8934 273.362 14.7744 273.422 14.6638C273.481 14.5532 273.541 14.4426 273.617 14.332C273.685 14.2214 273.761 14.1194 273.838 14.0173C273.914 13.9152 273.999 13.8217 274.092 13.7281C274.185 13.6345 274.279 13.5495 274.372 13.4644C274.474 13.3793 274.576 13.3028 274.678 13.2347C274.779 13.1667 274.89 13.0986 275.009 13.0391C275.119 12.9795 275.238 12.92 275.356 12.8775C275.475 12.8349 275.594 12.7839 275.721 12.7499C275.84 12.7159 275.967 12.6818 276.095 12.6563C276.222 12.6308 276.349 12.6138 276.476 12.6053C276.604 12.5968 276.731 12.5883 276.858 12.5883C276.986 12.5883 277.104 12.5883 277.232 12.6053C277.359 12.6138 277.478 12.6308 277.605 12.6563C277.724 12.6818 277.851 12.7073 277.97 12.7499C278.089 12.7839 278.207 12.8264 278.326 12.8775C278.445 12.9285 278.555 12.9795 278.666 13.0391C278.776 13.0986 278.886 13.1582 278.988 13.2347C279.09 13.3113 279.192 13.3793 279.285 13.4559C279.378 13.5324 279.472 13.6175 279.565 13.7111C279.65 13.7961 279.735 13.8897 279.811 13.9918C279.887 14.0853 279.964 14.1874 280.032 14.298C280.1 14.4001 280.167 14.5107 280.218 14.6212C280.278 14.7318 280.329 14.8424 280.38 14.9615C280.431 15.0806 280.464 15.1997 280.498 15.3187C280.532 15.4378 280.566 15.5569 280.583 15.6845C280.609 15.8036 280.626 15.9312 280.634 16.0588C280.643 16.1864 280.651 16.3055 280.651 16.4331C280.643 16.7053 280.609 17.003 280.541 17.2922Z" fill="#151415"/>
<path id="Vector_10" d="M285.198 14.2126C285.122 14.2126 285.045 14.2211 284.978 14.2296C284.901 14.2381 284.833 14.2466 284.757 14.2636C284.681 14.2806 284.613 14.2976 284.545 14.3231C284.477 14.3487 284.401 14.3742 284.333 14.3997C284.265 14.4337 284.197 14.4677 284.138 14.5018C284.07 14.5358 284.01 14.5783 283.951 14.6209C283.892 14.6634 283.832 14.7144 283.773 14.757C283.713 14.808 283.662 14.859 283.611 14.9101C283.561 14.9611 283.51 15.0206 283.467 15.0802C283.425 15.1397 283.382 15.1993 283.34 15.2673C283.298 15.3269 283.264 15.3949 283.23 15.463C283.196 15.531 283.17 15.5991 283.145 15.6671C283.119 15.7352 283.094 15.8117 283.077 15.8798C283.06 15.9563 283.043 16.0244 283.035 16.1009C283.026 16.1775 283.018 16.2455 283.009 16.3221C283.009 16.3986 283.009 16.4752 283.009 16.5433C283.009 16.6198 283.009 16.6879 283.018 16.7644C283.026 16.841 283.035 16.909 283.043 16.9856C283.051 17.0536 283.068 17.1302 283.094 17.1982C283.111 17.2663 283.136 17.3343 283.162 17.4024C283.187 17.4704 283.221 17.5385 283.255 17.598C283.289 17.6661 283.323 17.7256 283.365 17.7852C283.408 17.8447 283.45 17.9042 283.493 17.9638C283.535 18.0233 283.586 18.0744 283.637 18.1254C283.688 18.1764 283.739 18.2275 283.798 18.2785C283.858 18.3296 283.908 18.3721 283.968 18.4146C284.027 18.4571 284.087 18.4912 284.155 18.5337C284.222 18.5762 284.282 18.6017 284.35 18.6273C284.418 18.6528 284.485 18.6783 284.553 18.7038C284.621 18.7293 284.689 18.7464 284.765 18.7549C284.833 18.7719 284.91 18.7804 284.978 18.7889C285.054 18.7974 285.122 18.7974 285.198 18.7974C285.275 18.7974 285.342 18.7889 285.419 18.7804C285.495 18.7719 285.563 18.7634 285.639 18.7464C285.707 18.7293 285.784 18.7123 285.852 18.6868C285.919 18.6613 285.987 18.6358 286.055 18.6103C286.123 18.5847 286.191 18.5507 286.25 18.5082C286.318 18.4742 286.378 18.4316 286.437 18.3891C286.496 18.3466 286.556 18.304 286.607 18.253C286.658 18.202 286.717 18.1509 286.768 18.0999C286.819 18.0488 286.861 17.9893 286.912 17.9298C286.955 17.8702 286.997 17.8107 287.039 17.7511C287.073 17.6916 287.116 17.6235 287.141 17.5555C287.167 17.4874 287.201 17.4194 287.226 17.3513C287.252 17.2833 287.269 17.2152 287.286 17.1387C287.303 17.0706 287.32 16.9941 287.328 16.926C287.336 16.8495 287.345 16.7814 287.345 16.7049C287.345 16.6283 287.345 16.5603 287.345 16.4837C287.353 16.4072 287.353 16.3391 287.345 16.2626C287.345 16.186 287.336 16.1179 287.328 16.0414C287.32 15.9648 287.303 15.8968 287.286 15.8287C287.269 15.7607 287.243 15.6841 287.226 15.6161C287.201 15.548 287.175 15.48 287.141 15.4119C287.107 15.3439 287.073 15.2843 287.039 15.2163C287.006 15.1567 286.963 15.0972 286.912 15.0377C286.861 14.9781 286.819 14.9271 286.768 14.8675C286.717 14.8165 286.666 14.7655 286.607 14.7144C286.556 14.6634 286.496 14.6209 286.437 14.5783C286.378 14.5358 286.318 14.4933 286.25 14.4592C286.182 14.4252 286.123 14.3912 286.055 14.3657C285.987 14.3402 285.919 14.3146 285.852 14.2891C285.784 14.2636 285.707 14.2466 285.639 14.2296C285.572 14.2126 285.495 14.2041 285.427 14.1955C285.342 14.2211 285.266 14.2126 285.198 14.2126ZM287.387 20.1754V19.2652C287.226 19.4439 287.039 19.597 286.844 19.7416C286.649 19.8862 286.437 20.0053 286.216 20.0988C285.996 20.2009 285.767 20.2775 285.538 20.3285C285.3 20.3795 285.062 20.4136 284.825 20.4136C282.627 20.4136 281.27 18.5507 281.27 16.4582C281.261 16.3306 281.261 16.2115 281.27 16.0839C281.278 15.9563 281.287 15.8372 281.312 15.7182C281.329 15.5991 281.354 15.4715 281.388 15.3524C281.422 15.2333 281.456 15.1142 281.499 14.9951C281.541 14.876 281.592 14.7655 281.643 14.6549C281.694 14.5443 281.762 14.4337 281.821 14.3316C281.889 14.2296 281.957 14.1275 282.033 14.0254C282.11 13.9234 282.186 13.8298 282.271 13.7447C282.356 13.6512 282.449 13.5661 282.542 13.4895C282.636 13.4045 282.738 13.3279 282.831 13.2599C282.933 13.1918 283.035 13.1238 283.145 13.0642C283.255 13.0047 283.365 12.9451 283.476 12.8941C283.586 12.8431 283.705 12.8005 283.824 12.758C283.942 12.724 284.061 12.69 284.18 12.6644C284.299 12.6389 284.426 12.6219 284.545 12.6049C284.672 12.5879 284.791 12.5794 284.918 12.5794C285.113 12.5794 285.317 12.6049 285.512 12.6389C285.707 12.6814 285.894 12.7325 286.081 12.809C286.267 12.8856 286.446 12.9707 286.607 13.0812C286.776 13.1918 286.929 13.3109 287.082 13.447C287.184 13.5406 287.269 13.6426 287.345 13.7532V12.8346H288.957V20.1669L287.387 20.1754Z" fill="#151415"/>
<path id="Vector_11" d="M299.437 20.1754V16.1009C299.437 15.1653 299.182 14.1955 298.045 14.1955C297.926 14.1955 297.808 14.2126 297.689 14.2466C297.57 14.2806 297.46 14.3231 297.349 14.3827C297.239 14.4422 297.146 14.5188 297.061 14.6038C296.976 14.6889 296.9 14.7825 296.832 14.8845C296.73 15.1142 296.654 15.3609 296.603 15.6161C296.56 15.8713 296.543 16.1265 296.569 16.3816V20.1839H294.812V16.1094C294.812 15.1482 294.456 14.2041 293.344 14.2041C292.029 14.2041 291.953 15.5225 291.953 16.5177V20.1839H290.196V12.8431H291.809V13.464H291.834C291.944 13.3109 292.072 13.1833 292.216 13.0642C292.36 12.9451 292.521 12.8516 292.691 12.775C292.861 12.6985 293.039 12.6474 293.217 12.6134C293.395 12.5794 293.582 12.5709 293.769 12.5879C293.87 12.5879 293.972 12.5964 294.083 12.6049C294.184 12.6134 294.286 12.6389 294.388 12.6644C294.49 12.69 294.583 12.724 294.685 12.758C294.778 12.792 294.872 12.8431 294.965 12.8941C295.058 12.9451 295.143 12.9962 295.228 13.0642C295.313 13.1323 295.389 13.1918 295.466 13.2599C295.542 13.3279 295.61 13.4045 295.678 13.4895C295.746 13.5661 295.805 13.6512 295.856 13.7447C295.924 13.6512 295.992 13.5576 296.068 13.4725C296.144 13.3875 296.229 13.3109 296.314 13.2344C296.399 13.1578 296.492 13.0897 296.586 13.0302C296.679 12.9707 296.781 12.9111 296.883 12.8601C296.984 12.809 297.095 12.7665 297.197 12.7325C297.307 12.6985 297.417 12.6644 297.528 12.6474C297.638 12.6219 297.757 12.6134 297.867 12.6049C297.977 12.5964 298.096 12.5964 298.206 12.6049C298.435 12.5964 298.665 12.6134 298.894 12.6644C299.123 12.707 299.343 12.7835 299.547 12.8856C299.759 12.9877 299.954 13.1068 300.132 13.2514C300.311 13.396 300.472 13.5661 300.616 13.7447C300.82 14.068 300.964 14.4167 301.057 14.791C301.151 15.1653 301.193 15.5395 301.168 15.9223V20.2094H299.437V20.1754Z" fill="#151415"/>
<path id="Vector_12" d="M305.606 20.3465C305.53 20.3465 305.462 20.3465 305.385 20.3465C305.309 20.338 305.241 20.3295 305.165 20.321C305.088 20.3125 305.021 20.2955 304.953 20.27C304.885 20.253 304.808 20.2275 304.741 20.2019C304.673 20.1764 304.605 20.1424 304.537 20.1084C304.469 20.0743 304.41 20.0403 304.35 19.9978C304.291 19.9553 304.231 19.9127 304.172 19.8702C304.113 19.8277 304.062 19.7766 304.011 19.7256C303.96 19.6746 303.909 19.615 303.867 19.564C303.824 19.5129 303.773 19.4449 303.739 19.3853C303.697 19.3258 303.663 19.2578 303.629 19.1897C303.595 19.1217 303.57 19.0536 303.536 18.9856C303.51 18.9175 303.485 18.8495 303.468 18.7729C303.451 18.7049 303.434 18.6283 303.417 18.5602C303.408 18.4837 303.4 18.4156 303.391 18.3391C303.383 18.2625 303.383 18.1945 303.391 18.1179V18.0414H304.308C304.308 18.875 304.724 19.5214 305.606 19.5214C305.648 19.53 305.691 19.53 305.742 19.53C305.793 19.53 305.827 19.53 305.878 19.5214C305.92 19.5129 305.962 19.5129 306.005 19.4959C306.047 19.4874 306.09 19.4704 306.132 19.4619C306.175 19.4449 306.217 19.4279 306.259 19.4109C306.302 19.3939 306.336 19.3683 306.378 19.3513C306.412 19.3258 306.455 19.3003 306.488 19.2748C306.522 19.2492 306.556 19.2152 306.59 19.1897C306.624 19.1557 306.65 19.1302 306.684 19.0961C306.709 19.0621 306.735 19.0281 306.76 18.9856C306.785 18.9515 306.811 18.909 306.828 18.8665C306.845 18.8239 306.87 18.7899 306.879 18.7474C306.896 18.7049 306.904 18.6623 306.921 18.6198C306.93 18.5773 306.938 18.5347 306.947 18.4922C306.955 18.4497 306.955 18.4071 306.955 18.3561C306.955 18.3051 306.955 18.271 306.955 18.22C306.955 16.3061 303.604 17.1737 303.604 14.7665C303.604 14.6984 303.604 14.6304 303.612 14.5623C303.621 14.4943 303.629 14.4262 303.637 14.3582C303.646 14.2901 303.663 14.2306 303.688 14.1626C303.705 14.0945 303.731 14.035 303.756 13.9754C303.782 13.9159 303.807 13.8478 303.841 13.7883C303.875 13.7287 303.909 13.6692 303.943 13.6182C303.977 13.5586 304.019 13.5076 304.062 13.4565C304.104 13.4055 304.147 13.3545 304.197 13.3119C304.248 13.2609 304.299 13.2184 304.35 13.1758C304.401 13.1333 304.461 13.0908 304.511 13.0567C304.571 13.0227 304.63 12.9887 304.69 12.9547C304.749 12.9207 304.808 12.8951 304.876 12.8696C304.936 12.8441 305.004 12.8271 305.071 12.8101C305.139 12.7931 305.199 12.776 305.267 12.7675C305.334 12.759 305.402 12.7505 305.47 12.742C305.538 12.742 305.606 12.742 305.674 12.742C305.742 12.742 305.801 12.742 305.869 12.7505C305.937 12.759 305.996 12.7675 306.064 12.776C306.132 12.7846 306.191 12.8016 306.251 12.8186C306.31 12.8356 306.378 12.8611 306.438 12.8866C306.497 12.9121 306.556 12.9377 306.616 12.9717C306.675 13.0057 306.726 13.0397 306.785 13.0738C306.836 13.1078 306.896 13.1503 306.938 13.1928C306.989 13.2354 307.04 13.2779 307.082 13.3204C307.125 13.363 307.167 13.414 307.21 13.465C307.252 13.5161 307.286 13.5671 307.328 13.6267C307.362 13.6777 307.396 13.7372 307.43 13.7968C307.464 13.8563 307.49 13.9159 307.515 13.9754C307.541 14.035 307.558 14.0945 307.575 14.1626C307.592 14.2221 307.609 14.2901 307.617 14.3497C307.625 14.4177 307.634 14.4773 307.642 14.5453C307.651 14.6134 307.651 14.6729 307.651 14.741H306.726C306.726 14.6644 306.726 14.5964 306.709 14.5198C306.701 14.4433 306.675 14.3752 306.65 14.3072C306.624 14.2391 306.59 14.1711 306.556 14.1115C306.514 14.052 306.472 13.9924 306.421 13.9414C306.37 13.8904 306.319 13.8393 306.251 13.7968C306.191 13.7543 306.124 13.7202 306.064 13.6862C306.005 13.6522 305.928 13.6352 305.861 13.6182C305.793 13.6011 305.716 13.5926 305.64 13.5926C305.564 13.5926 305.496 13.5926 305.428 13.6011C305.36 13.6097 305.284 13.6352 305.216 13.6607C305.148 13.6862 305.088 13.7202 305.021 13.7628C304.961 13.8053 304.902 13.8478 304.851 13.8989C304.8 13.9499 304.758 14.0094 304.715 14.069C304.673 14.1285 304.639 14.1966 304.613 14.2646C304.588 14.3327 304.571 14.4007 304.554 14.4688C304.545 14.5368 304.537 14.6134 304.537 14.6814C304.537 16.3316 307.889 15.4725 307.889 18.1434C307.889 18.22 307.889 18.2966 307.889 18.3646C307.889 18.4412 307.88 18.5092 307.863 18.5858C307.855 18.6623 307.838 18.7304 307.812 18.8069C307.795 18.875 307.77 18.9515 307.744 19.0196C307.719 19.0876 307.685 19.1557 307.651 19.2237C307.617 19.2918 307.575 19.3513 307.541 19.4194C307.498 19.4789 307.456 19.5385 307.405 19.598C307.354 19.6575 307.303 19.7086 307.252 19.7596C307.201 19.8107 307.142 19.8617 307.082 19.9042C307.023 19.9468 306.964 19.9893 306.896 20.0318C306.836 20.0743 306.768 20.1084 306.701 20.1424C306.633 20.1764 306.565 20.2019 306.497 20.2275C306.429 20.253 306.353 20.27 306.285 20.287C306.208 20.304 306.141 20.321 306.064 20.3295C305.988 20.338 305.92 20.3465 305.844 20.3465C305.759 20.3551 305.682 20.3551 305.606 20.3465Z" fill="#151415"/>
<path id="Vector_13" d="M312.665 13.5833C312.572 13.5833 312.478 13.5919 312.385 13.6089C312.292 13.6259 312.198 13.6429 312.105 13.6599C312.012 13.6854 311.927 13.7109 311.833 13.7365C311.74 13.762 311.655 13.8045 311.57 13.8385C311.486 13.8726 311.401 13.9236 311.316 13.9661C311.231 14.0172 311.155 14.0597 311.078 14.1192C311.002 14.1703 310.926 14.2298 310.858 14.2979C310.79 14.3574 310.722 14.4255 310.654 14.4935C310.586 14.5616 310.527 14.6296 310.467 14.7062C310.408 14.7827 310.357 14.8593 310.306 14.9358C310.255 15.0124 310.204 15.0974 310.162 15.1825C310.119 15.2676 310.077 15.3526 310.043 15.4377C310.009 15.5228 309.975 15.6163 309.95 15.7014C309.924 15.795 309.899 15.88 309.882 15.9736C309.865 16.0671 309.848 16.1607 309.839 16.2543C309.831 16.3479 309.822 16.4414 309.822 16.535C309.822 16.6286 309.831 16.7221 309.839 16.8157C309.848 16.9093 309.865 17.0028 309.882 17.0964C309.899 17.19 309.924 17.2835 309.95 17.3686C309.975 17.4622 310.009 17.5472 310.043 17.6323C310.077 17.7173 310.119 17.8024 310.162 17.8875C310.204 17.9725 310.255 18.0491 310.306 18.1342C310.357 18.2192 310.408 18.2873 310.467 18.3638C310.527 18.4404 310.586 18.5084 310.654 18.5765C310.722 18.6445 310.79 18.7126 310.858 18.7721C310.926 18.8317 311.002 18.8912 311.078 18.9507C311.155 19.0018 311.231 19.0528 311.316 19.1039C311.401 19.1549 311.486 19.1974 311.57 19.2314C311.655 19.274 311.74 19.308 311.833 19.3335C311.927 19.3675 312.012 19.3931 312.105 19.4101C312.198 19.4271 312.292 19.4526 312.385 19.4611C312.478 19.4781 312.572 19.4866 312.665 19.4866C312.758 19.4866 312.86 19.4866 312.953 19.4781C313.047 19.4696 313.149 19.4611 313.242 19.4441C313.335 19.4271 313.429 19.4101 313.522 19.3761C313.615 19.3505 313.709 19.3165 313.793 19.2825C313.878 19.2485 313.972 19.2059 314.057 19.1634C314.141 19.1209 314.226 19.0698 314.311 19.0188C314.396 18.9678 314.472 18.9082 314.549 18.8487C314.625 18.7891 314.693 18.7211 314.769 18.653C314.837 18.585 314.905 18.5084 314.964 18.4404C315.024 18.3638 315.083 18.2873 315.134 18.2022C315.185 18.1171 315.236 18.0406 315.278 17.947C315.321 17.862 315.363 17.7684 315.397 17.6833C315.431 17.5898 315.465 17.5047 315.491 17.4111C315.516 17.3176 315.541 17.224 315.558 17.1304C315.575 17.0369 315.592 16.9348 315.592 16.8412C315.601 16.7476 315.601 16.6456 315.601 16.552C315.601 16.4499 315.601 16.3564 315.592 16.2543C315.584 16.1522 315.575 16.0586 315.558 15.9651C315.541 15.8715 315.524 15.7694 315.491 15.6759C315.465 15.5823 315.431 15.4887 315.397 15.3952C315.363 15.3016 315.321 15.2165 315.278 15.123C315.236 15.0379 315.185 14.9528 315.134 14.8678C315.083 14.7827 315.024 14.7062 314.964 14.6296C314.905 14.553 314.837 14.4765 314.769 14.4084C314.701 14.3404 314.625 14.2723 314.549 14.2128C314.472 14.1533 314.396 14.0937 314.311 14.0342C314.226 13.9831 314.141 13.9321 314.057 13.8811C313.972 13.8385 313.878 13.796 313.793 13.7535C313.7 13.7194 313.607 13.6854 313.513 13.6599C313.42 13.6344 313.327 13.6089 313.225 13.5919C313.132 13.5748 313.03 13.5578 312.936 13.5578C312.86 13.5833 312.767 13.5833 312.665 13.5833ZM312.665 20.3458C312.529 20.3458 312.393 20.3458 312.258 20.3287C312.122 20.3117 311.986 20.2947 311.85 20.2607C311.715 20.2267 311.587 20.1926 311.46 20.1501C311.333 20.1076 311.206 20.048 311.087 19.9885C310.968 19.929 310.849 19.8609 310.73 19.7844C310.62 19.7078 310.51 19.6227 310.408 19.5377C310.306 19.4526 310.204 19.3505 310.111 19.257C310.018 19.1634 309.933 19.0528 309.856 18.9422H309.831V22.753H308.923V12.9369H309.848V14.2128H309.873C309.95 14.1022 310.035 13.9916 310.128 13.8896C310.221 13.7875 310.315 13.6939 310.416 13.6004C310.518 13.5068 310.629 13.4217 310.739 13.3452C310.849 13.2686 310.968 13.2006 311.095 13.1325C311.214 13.073 311.341 13.0134 311.469 12.9624C311.596 12.9114 311.732 12.8773 311.859 12.8433C311.995 12.8093 312.13 12.7838 312.266 12.7753C312.402 12.7582 312.538 12.7497 312.673 12.7582C312.801 12.7582 312.92 12.7668 313.047 12.7753C313.174 12.7838 313.293 12.8093 313.412 12.8263C313.53 12.8518 313.658 12.8773 313.777 12.9199C313.895 12.9539 314.014 12.9964 314.124 13.0475C314.243 13.0985 314.354 13.1495 314.464 13.2091C314.574 13.2686 314.676 13.3282 314.786 13.4047C314.888 13.4728 314.99 13.5493 315.083 13.6259C315.177 13.7024 315.27 13.7875 315.355 13.8726C315.44 13.9576 315.524 14.0512 315.601 14.1448C315.677 14.2383 315.754 14.3404 315.821 14.4425C315.889 14.5445 315.957 14.6551 316.017 14.7657C316.076 14.8763 316.127 14.9869 316.178 15.106C316.229 15.225 316.271 15.3356 316.305 15.4547C316.339 15.5738 316.373 15.6929 316.398 15.8205C316.424 15.9396 316.441 16.0671 316.449 16.1862C316.458 16.3138 316.466 16.4329 316.466 16.5605C316.466 16.6881 316.458 16.8072 316.449 16.9348C316.441 17.0624 316.415 17.1815 316.398 17.3005C316.373 17.4196 316.348 17.5472 316.305 17.6663C316.271 17.7854 316.229 17.9045 316.178 18.0151C316.127 18.1342 316.076 18.2447 316.017 18.3553C315.957 18.4659 315.898 18.568 315.821 18.6785C315.754 18.7806 315.677 18.8827 315.601 18.9763C315.524 19.0698 315.44 19.1634 315.355 19.2485C315.27 19.3335 315.177 19.4186 315.083 19.4951C314.99 19.5717 314.888 19.6483 314.786 19.7163C314.684 19.7844 314.574 19.8524 314.464 19.9119C314.354 19.9715 314.243 20.0225 314.124 20.0736C314.006 20.1246 313.895 20.1671 313.777 20.2012C313.658 20.2352 313.539 20.2692 313.412 20.2947C313.293 20.3202 313.166 20.3373 313.047 20.3458C312.92 20.3543 312.801 20.3628 312.673 20.3628L312.665 20.3458Z" fill="#151415"/>
<path id="Vector_14" d="M321.244 13.5841C321.142 13.5841 321.049 13.5841 320.947 13.5841C320.845 13.5926 320.752 13.6011 320.658 13.6182C320.565 13.6352 320.463 13.6522 320.37 13.6777C320.276 13.7032 320.183 13.7372 320.09 13.7713C319.996 13.8053 319.912 13.8478 319.818 13.8904C319.733 13.9329 319.649 13.9839 319.564 14.035C319.479 14.086 319.403 14.1455 319.326 14.2051C319.25 14.2646 319.173 14.3327 319.106 14.4007C319.038 14.4688 318.97 14.5368 318.902 14.6134C318.834 14.6899 318.775 14.7665 318.724 14.843C318.673 14.9196 318.613 15.0047 318.571 15.0897C318.52 15.1748 318.478 15.2599 318.435 15.3534C318.393 15.447 318.359 15.532 318.333 15.6256C318.299 15.7192 318.274 15.8128 318.257 15.9063C318.24 15.9999 318.223 16.102 318.206 16.1955C318.198 16.2891 318.189 16.3912 318.189 16.4847C318.189 16.5868 318.189 16.6804 318.198 16.7825C318.206 16.8845 318.215 16.9781 318.232 17.0717C318.249 17.1652 318.274 17.2673 318.299 17.3609C318.325 17.4544 318.359 17.548 318.393 17.6416C318.427 17.7351 318.469 17.8202 318.512 17.9053C318.554 17.9903 318.605 18.0754 318.656 18.1605C318.707 18.2455 318.766 18.3221 318.826 18.3986C318.885 18.4752 318.953 18.5517 319.021 18.6198C319.089 18.6878 319.165 18.7559 319.233 18.8154C319.301 18.875 319.386 18.9345 319.47 18.9941C319.555 19.0451 319.632 19.1046 319.716 19.1472C319.801 19.1982 319.895 19.2407 319.979 19.2748C320.073 19.3088 320.158 19.3428 320.251 19.3768C320.344 19.4024 320.438 19.4279 320.531 19.4534C320.624 19.4704 320.726 19.4874 320.82 19.4959C320.913 19.5044 321.015 19.5129 321.116 19.5129C321.218 19.5129 321.312 19.5044 321.413 19.4959C321.507 19.4874 321.609 19.4704 321.702 19.4534C321.795 19.4364 321.889 19.4109 321.99 19.3853C322.084 19.3598 322.177 19.3258 322.27 19.2833C322.364 19.2493 322.449 19.2067 322.534 19.1557C322.618 19.1046 322.703 19.0621 322.788 19.0026C322.873 18.9515 322.949 18.892 323.026 18.8239C323.102 18.7644 323.17 18.6963 323.238 18.6283C323.306 18.5602 323.374 18.4837 323.433 18.4071C323.492 18.3306 323.552 18.254 323.603 18.169C323.654 18.0839 323.704 17.9988 323.755 17.9138C323.798 17.8287 323.84 17.7351 323.874 17.6501C323.908 17.5565 323.942 17.463 323.967 17.3694C323.993 17.2758 324.018 17.1822 324.035 17.0802C324.052 16.9866 324.069 16.8845 324.078 16.791C324.086 16.6974 324.086 16.5953 324.086 16.4932C324.086 16.3997 324.078 16.3061 324.069 16.2125C324.061 16.119 324.044 16.0254 324.027 15.9318C324.01 15.8383 323.984 15.7447 323.959 15.6596C323.934 15.5661 323.9 15.481 323.866 15.3959C323.832 15.3109 323.789 15.2258 323.747 15.1408C323.704 15.0557 323.654 14.9791 323.603 14.8941C323.552 14.8175 323.492 14.741 323.441 14.6644C323.382 14.5879 323.323 14.5198 323.255 14.4518C323.187 14.3837 323.119 14.3242 323.051 14.2561C322.983 14.1966 322.907 14.137 322.83 14.086C322.754 14.035 322.669 13.9839 322.593 13.9329C322.508 13.8904 322.423 13.8478 322.338 13.8053C322.254 13.7713 322.169 13.7372 322.075 13.7032C321.982 13.6777 321.897 13.6522 321.804 13.6267C321.71 13.6097 321.617 13.5926 321.524 13.5756C321.43 13.5671 321.337 13.5586 321.244 13.5586V13.5841ZM321.244 20.3465C321.116 20.3465 320.998 20.338 320.87 20.3295C320.743 20.321 320.624 20.2955 320.506 20.2785C320.387 20.253 320.259 20.2275 320.141 20.1849C320.022 20.1509 319.903 20.1084 319.793 20.0573C319.674 20.0063 319.564 19.9553 319.453 19.8957C319.343 19.8362 319.241 19.7766 319.131 19.7001C319.029 19.632 318.927 19.5555 318.834 19.4789C318.741 19.4024 318.647 19.3173 318.562 19.2322C318.478 19.1472 318.393 19.0536 318.316 18.96C318.24 18.8665 318.164 18.7644 318.096 18.6623C318.028 18.5602 317.96 18.4497 317.901 18.3391C317.841 18.2285 317.79 18.1179 317.739 17.9988C317.689 17.8798 317.646 17.7692 317.612 17.6501C317.578 17.531 317.544 17.4119 317.519 17.2843C317.493 17.1652 317.476 17.0376 317.468 16.9186C317.459 16.791 317.451 16.6719 317.451 16.5443C317.451 16.4167 317.459 16.2976 317.468 16.17C317.476 16.0424 317.502 15.9233 317.519 15.8042C317.536 15.6852 317.57 15.5576 317.612 15.4385C317.646 15.3194 317.689 15.2003 317.739 15.0897C317.79 14.9706 317.841 14.8601 317.901 14.7495C317.96 14.6389 318.019 14.5368 318.096 14.4262C318.164 14.3242 318.24 14.2221 318.316 14.1285C318.393 14.035 318.478 13.9414 318.562 13.8563C318.647 13.7713 318.741 13.6862 318.834 13.6097C318.927 13.5331 319.029 13.4565 319.131 13.3885C319.233 13.3204 319.343 13.2524 319.453 13.1928C319.564 13.1333 319.674 13.0823 319.793 13.0312C319.912 12.9802 320.022 12.9377 320.141 12.9036C320.259 12.8696 320.378 12.8356 320.506 12.8101C320.624 12.7846 320.752 12.7675 320.87 12.759C320.989 12.7505 321.116 12.742 321.244 12.742C321.371 12.742 321.49 12.7505 321.617 12.759C321.744 12.7675 321.863 12.7931 321.982 12.8101C322.101 12.8271 322.228 12.8611 322.347 12.9036C322.466 12.9377 322.584 12.9802 322.695 13.0312C322.805 13.0823 322.924 13.1333 323.034 13.1928C323.144 13.2524 323.246 13.3119 323.357 13.3885C323.458 13.4565 323.56 13.5331 323.654 13.6097C323.747 13.6862 323.84 13.7713 323.925 13.8563C324.01 13.9414 324.095 14.035 324.171 14.1285C324.248 14.2221 324.324 14.3242 324.392 14.4262C324.46 14.5283 324.528 14.6389 324.587 14.7495C324.646 14.8601 324.697 14.9706 324.748 15.0897C324.799 15.2088 324.841 15.3194 324.875 15.4385C324.909 15.5576 324.943 15.6767 324.969 15.8042C324.994 15.9233 325.011 16.0509 325.02 16.17C325.028 16.2891 325.037 16.4167 325.037 16.5443C325.037 16.6719 325.028 16.791 325.02 16.9186C325.011 17.0461 324.986 17.1652 324.96 17.2843C324.935 17.4034 324.909 17.5225 324.867 17.6416C324.833 17.7607 324.791 17.8798 324.74 17.9903C324.689 18.1009 324.638 18.22 324.578 18.3306C324.519 18.4412 324.46 18.5432 324.383 18.6538C324.315 18.7559 324.239 18.858 324.163 18.9515C324.086 19.0451 324.001 19.1387 323.917 19.2237C323.832 19.3088 323.738 19.3939 323.645 19.4704C323.552 19.547 323.45 19.6235 323.348 19.6916C323.246 19.7596 323.136 19.8277 323.026 19.8872C322.915 19.9468 322.805 19.9978 322.686 20.0488C322.576 20.0999 322.457 20.1424 322.338 20.1764C322.22 20.2104 322.101 20.2445 321.982 20.27C321.863 20.2955 321.736 20.3125 321.617 20.3295C321.49 20.338 321.363 20.3465 321.244 20.3465Z" fill="#151415"/>
<path id="Vector_15" d="M327.217 15.9412V20.1772H326.301V12.9385H327.217V13.9847H327.243C327.642 13.0576 328.337 12.8194 329.279 12.7514V13.7296C329.211 13.7296 329.135 13.7381 329.067 13.7466C328.999 13.7551 328.931 13.7636 328.863 13.7806C328.796 13.7976 328.728 13.8146 328.66 13.8316C328.592 13.8572 328.524 13.8827 328.465 13.9082C328.397 13.9337 328.337 13.9677 328.278 14.0018C328.219 14.0358 328.159 14.0783 328.1 14.1123C328.04 14.1549 327.99 14.1974 327.939 14.2399C327.888 14.2825 327.837 14.3335 327.786 14.3845C327.735 14.4356 327.693 14.4866 327.65 14.5462C327.608 14.6057 327.565 14.6567 327.531 14.7163C327.497 14.7758 327.463 14.8354 327.429 14.9034C327.396 14.963 327.37 15.031 327.345 15.0991C327.319 15.1671 327.302 15.2352 327.285 15.3032C327.268 15.3713 327.251 15.4393 327.243 15.5074C327.234 15.5754 327.226 15.6435 327.226 15.72C327.226 15.7966 327.209 15.8731 327.217 15.9412Z" fill="#151415"/>
<path id="Vector_16" d="M331.919 13.7709V20.1761H330.977V13.7709H329.458V12.9373H330.977V10.377H331.919V12.9373H333.65V13.7709H331.919Z" fill="#151415"/>
<path id="Vector_17" d="M336.152 20.3465C336.076 20.3465 336.008 20.3465 335.932 20.3465C335.855 20.338 335.787 20.3295 335.711 20.321C335.635 20.3125 335.567 20.2955 335.499 20.27C335.431 20.253 335.355 20.2275 335.287 20.2019C335.219 20.1764 335.151 20.1424 335.083 20.1084C335.015 20.0743 334.956 20.0403 334.896 19.9978C334.837 19.9553 334.778 19.9127 334.718 19.8702C334.659 19.8277 334.608 19.7766 334.557 19.7256C334.506 19.6746 334.455 19.615 334.413 19.564C334.37 19.5044 334.319 19.4449 334.285 19.3853C334.243 19.3258 334.209 19.2578 334.175 19.1897C334.141 19.1217 334.107 19.0536 334.082 18.9856C334.056 18.9175 334.031 18.8495 334.014 18.7729C333.997 18.7049 333.98 18.6283 333.963 18.5602C333.955 18.4837 333.946 18.4156 333.938 18.3391C333.929 18.2625 333.929 18.1945 333.938 18.1179V18.0414H334.862C334.862 18.875 335.27 19.5214 336.161 19.5214C336.203 19.53 336.246 19.53 336.296 19.53C336.339 19.53 336.381 19.53 336.432 19.5214C336.475 19.5129 336.517 19.5129 336.559 19.4959C336.602 19.4789 336.644 19.4704 336.687 19.4619C336.729 19.4449 336.772 19.4279 336.814 19.4109C336.856 19.3939 336.89 19.3683 336.933 19.3513C336.967 19.3258 337.009 19.3003 337.043 19.2748C337.077 19.2492 337.111 19.2152 337.145 19.1897C337.179 19.1557 337.204 19.1302 337.238 19.0961C337.264 19.0621 337.289 19.0281 337.315 18.9856C337.34 18.9515 337.366 18.909 337.383 18.8665C337.399 18.8239 337.425 18.7899 337.433 18.7474C337.45 18.7049 337.459 18.6623 337.476 18.6198C337.484 18.5773 337.493 18.5347 337.501 18.4922C337.51 18.4497 337.51 18.4071 337.51 18.3561C337.51 18.3136 337.51 18.271 337.51 18.22C337.51 16.3061 334.158 17.1737 334.158 14.7665C334.158 14.6984 334.158 14.6304 334.167 14.5623C334.175 14.4943 334.184 14.4262 334.192 14.3582C334.201 14.2901 334.218 14.2306 334.243 14.1626C334.26 14.0945 334.285 14.035 334.311 13.9754C334.336 13.9159 334.362 13.8478 334.396 13.7883C334.43 13.7287 334.464 13.6692 334.498 13.6182C334.532 13.5586 334.574 13.5076 334.616 13.4565C334.659 13.4055 334.701 13.3545 334.752 13.3119C334.803 13.2609 334.854 13.2184 334.905 13.1758C334.956 13.1333 335.015 13.0908 335.066 13.0567C335.125 13.0227 335.185 12.9887 335.244 12.9547C335.304 12.9207 335.363 12.8951 335.431 12.8696C335.49 12.8441 335.558 12.8271 335.626 12.8101C335.694 12.7931 335.753 12.776 335.821 12.7675C335.889 12.759 335.957 12.7505 336.025 12.742C336.093 12.742 336.161 12.742 336.229 12.742C336.296 12.742 336.356 12.742 336.424 12.7505C336.492 12.759 336.551 12.7675 336.619 12.776C336.687 12.7846 336.746 12.8016 336.814 12.8186C336.873 12.8356 336.941 12.8611 337.001 12.8781C337.06 12.9036 337.119 12.9292 337.179 12.9632C337.238 12.9972 337.289 13.0227 337.349 13.0653C337.399 13.0993 337.459 13.1418 337.51 13.1843C337.561 13.2269 337.612 13.2694 337.654 13.3204C337.696 13.363 337.747 13.414 337.79 13.465C337.832 13.5161 337.866 13.5671 337.909 13.6267C337.943 13.6777 337.976 13.7372 338.01 13.7968C338.044 13.8563 338.07 13.9159 338.095 13.9754C338.121 14.035 338.138 14.0945 338.155 14.1626C338.172 14.2221 338.189 14.2901 338.197 14.3582C338.206 14.4262 338.214 14.4858 338.223 14.5538C338.231 14.6219 338.231 14.6814 338.231 14.7495H337.306C337.306 14.6729 337.306 14.6049 337.289 14.5283C337.272 14.4518 337.255 14.3837 337.23 14.3157C337.204 14.2476 337.17 14.1796 337.136 14.12C337.094 14.0605 337.052 14.0009 337.001 13.9499C336.95 13.8989 336.899 13.8478 336.839 13.8053C336.78 13.7628 336.712 13.7287 336.653 13.6947C336.585 13.6692 336.517 13.6437 336.449 13.6267C336.381 13.6097 336.305 13.6011 336.229 13.6011C336.195 13.6011 336.152 13.6011 336.118 13.6011C336.084 13.6011 336.042 13.6011 336.008 13.6097C335.974 13.6182 335.94 13.6182 335.898 13.6267C335.855 13.6352 335.83 13.6437 335.796 13.6607C335.762 13.6692 335.728 13.6862 335.694 13.7032C335.66 13.7202 335.626 13.7372 335.601 13.7543C335.567 13.7713 335.541 13.7968 335.507 13.8138C335.482 13.8393 335.448 13.8563 335.422 13.8819C335.397 13.9074 335.372 13.9329 335.346 13.9584C335.321 13.9839 335.304 14.0179 335.278 14.0435C335.261 14.0775 335.236 14.103 335.219 14.137C335.202 14.1711 335.185 14.2051 335.168 14.2391C335.151 14.2731 335.142 14.3072 335.134 14.3412C335.125 14.3752 335.117 14.4092 335.108 14.4518C335.1 14.4858 335.1 14.5198 335.092 14.5623C335.092 14.5964 335.092 14.6389 335.092 14.6729C335.092 16.3231 338.443 15.464 338.443 18.1349C338.452 18.2115 338.452 18.2881 338.443 18.3561C338.443 18.4327 338.435 18.5007 338.418 18.5773C338.409 18.6538 338.392 18.7219 338.375 18.7984C338.358 18.8665 338.333 18.943 338.307 19.0111C338.282 19.0791 338.248 19.1472 338.214 19.2152C338.18 19.2833 338.146 19.3428 338.104 19.4109C338.061 19.4704 338.019 19.53 337.968 19.5895C337.917 19.649 337.866 19.7001 337.815 19.7511C337.764 19.8022 337.705 19.8532 337.646 19.8957C337.586 19.9383 337.527 19.9808 337.467 20.0233C337.408 20.0658 337.34 20.0999 337.272 20.1339C337.204 20.1679 337.136 20.1934 337.069 20.219C337.001 20.2445 336.924 20.27 336.856 20.287C336.78 20.304 336.712 20.321 336.636 20.3295C336.559 20.338 336.492 20.3465 336.415 20.3465C336.296 20.3551 336.22 20.3551 336.152 20.3465Z" fill="#151415"/>
</g>
</g>
</svg>
